<svg width="20" height="22" viewBox="0 0 20 22" fill="none" xmlns="http://www.w3.org/2000/svg">
<path d="M2.17157 2.17157C1.51546 2.82768 1.2435 3.64711 1.11875 4.57494C0.999934 5.45869 0.999963 6.57531 0.999999 7.92943L1 8V14.8276L0.999998 14.9103C0.999944 16.1814 0.999899 17.2475 1.11605 18.0422C1.23306 18.8429 1.51631 19.7293 2.40716 20.1623C3.298 20.5953 4.17003 20.2703 4.87189 19.8677C5.56856 19.468 6.40679 18.8093 7.40629 18.0239L7.47128 17.9729L8.14653 17.4423C8.75895 16.9611 9.14961 16.6563 9.46959 16.4617C9.76651 16.281 9.90538 16.2578 10 16.2578C10.0946 16.2578 10.2335 16.281 10.5304 16.4617C10.8504 16.6563 11.241 16.9611 11.8535 17.4423L12.5287 17.9729L12.5937 18.0239C13.5932 18.8093 14.4314 19.468 15.1281 19.8677C15.83 20.2703 16.702 20.5953 17.5928 20.1623C18.4837 19.7293 18.7669 18.8429 18.884 18.0422C19.0001 17.2475 19.0001 16.1814 19 14.9103L19 14.8276V8V7.92946C19 6.57532 19.0001 5.4587 18.8812 4.57494C18.7565 3.64711 18.4845 2.82768 17.8284 2.17157C17.1723 1.51546 16.3529 1.2435 15.4251 1.11875C14.5413 0.999934 13.4247 0.999963 12.0706 0.999999L12 1H8L7.92943 0.999999C6.57531 0.999963 5.45869 0.999934 4.57494 1.11875C3.64711 1.2435 2.82768 1.51546 2.17157 2.17157Z" stroke="#100B0B" stroke-width="2"/>
</svg>
