<?xml version="1.0" standalone="no"?>
<!DOCTYPE svg PUBLIC "-//W3C//DTD SVG 20010904//EN"
 "http://www.w3.org/TR/2001/REC-SVG-20010904/DTD/svg10.dtd">
<svg version="1.0" xmlns="http://www.w3.org/2000/svg"
 width="100.000000pt" height="100.000000pt" viewBox="0 0 100.000000 100.000000"
 preserveAspectRatio="xMidYMid meet">

<g transform="translate(0.000000,512.000000) scale(0.100000,-0.100000)"
fill="#000000" stroke="none">
<path d="M560 3158 c-75 -51 -99 -132 -62 -204 26 -50 172 -214 294 -330 l96
-90 -95 -165 c-301 -519 -313 -541 -313 -586 0 -108 99 -184 201 -154 21 6 50
22 63 34 14 12 109 168 211 347 103 179 189 327 190 328 2 2 23 -9 47 -25 148
-101 426 -229 616 -284 39 -11 43 -15 39 -38 -3 -14 -31 -173 -62 -353 l-58
-326 24 -48 c31 -63 65 -86 131 -92 44 -3 59 0 88 20 67 46 72 60 135 422 l59
336 30 -5 c146 -25 411 -31 596 -15 63 6 126 12 140 13 l24 2 59 -330 c33
-189 66 -345 76 -365 47 -93 196 -106 261 -23 44 56 43 73 -20 433 -33 186
-60 342 -60 347 0 4 44 22 98 39 178 58 354 141 572 272 l35 21 190 -331 c105
-182 201 -339 214 -349 37 -30 95 -42 140 -29 76 20 132 106 117 182 -4 18
-96 188 -206 377 l-199 344 96 91 c123 116 269 279 295 330 51 100 -26 226
-139 226 -24 0 -57 -7 -72 -15 -15 -7 -74 -66 -131 -130 -367 -415 -822 -675
-1340 -765 -159 -27 -432 -37 -595 -21 -584 57 -1098 325 -1505 786 -57 64
-116 123 -131 130 -43 23 -110 19 -149 -7z"/>
</g>
</svg>
