<svg width="35" height="40" viewBox="0 0 35 40" fill="none" xmlns="http://www.w3.org/2000/svg">
<path d="M11.666 20L11.666 12.5C11.666 9.27834 14.2777 6.66667 17.4993 6.66667V6.66667C20.721 6.66667 23.3327 9.27834 23.3327 12.5L23.3327 20" stroke="#09C269" stroke-width="2" stroke-linecap="round"/>
<path d="M5.56288 18.7091C5.69114 16.9501 5.75527 16.0705 6.33099 15.5353C6.90671 15 7.78857 15 9.55229 15H25.4477C27.2114 15 28.0933 15 28.669 15.5353C29.2447 16.0705 29.3089 16.9501 29.4371 18.7091L30.4686 32.8546C30.5418 33.8594 30.5785 34.3618 30.2818 34.6809C29.9851 35 29.4814 35 28.4739 35H6.52614C5.51863 35 5.01487 35 4.7182 34.6809C4.42153 34.3618 4.45817 33.8594 4.53144 32.8546L5.56288 18.7091Z" fill="#09C269"/>
</svg>
